# xmcd
# 
# Track frame offsets:
#     150
#     20717
#     30906
#     47080
#     59323
#     70034
#     86670
#     98907
#     115578
#     129259
#     144703
#     161236
# 
# Disc length: 2462
# 
# Revision: 5
# Processed by: cddbd v1.5.2PL0 Copyright (c) Steve Scherf et al.
# Submitted via: fre:ac v1.1beta1pre4
# 
DISCID=9c099c0c
DTITLE=Eagles Of Death Metal - Heart On
DYEAR=2008
DGENRE=Rock
TTITLE0=Anything 'Cept the Truth
TTITLE1=Wannabe In L.A.
TTITLE2=(I Used To Couldn't Dance) Tight Pants
TTITLE3=High Voltage
TTITLE4=Secret Plans
TTITLE5=Now I'm A Fool
TTITLE6=Heart On
TTITLE7=Cheap Thrills
TTITLE8=How Can A Man With So Many Friends Feel So All Alone
TTITLE9=Solo Flights
TTITLE10=Prissy Prancin'
TTITLE11=I'm Your Torpedo
EXTD=
EXTT0=
EXTT1=
EXTT2=
EXTT3=
EXTT4=
EXTT5=
EXTT6=
EXTT7=
EXTT8=
EXTT9=
EXTT10=
EXTT11=
PLAYORDER=
